<svg xmlns="http://www.w3.org/2000/svg" viewBox="0 0 256 256" fill="none">
  <circle cx="128" cy="128" r="128" fill="#14BF96" fill-opacity="0.15"/>
  <path d="M128 40c-12 20-48 60-48 100 0 36 20 60 48 76 28-16 48-40 48-76 0-40-36-80-48-100z" fill="#14BF96"/>
  <path d="M128 80c-4 12-20 36-20 60 0 20 8 36 20 48V80z" fill="#0a9e7a"/>
  <path d="M128 100v88c0 0 0 0 0 0" stroke="white" stroke-width="2.5" stroke-linecap="round"/>
  <path d="M128 130c-10-8-18-6-24 0" stroke="white" stroke-width="2" stroke-linecap="round" fill="none"/>
  <path d="M128 150c-8-6-14-4-18 2" stroke="white" stroke-width="2" stroke-linecap="round" fill="none"/>
  <path d="M128 120c8-10 16-8 22-2" stroke="white" stroke-width="2" stroke-linecap="round" fill="none"/>
  <path d="M128 142c6-8 12-6 16 0" stroke="white" stroke-width="2" stroke-linecap="round" fill="none"/>
</svg>