<svg width="38" height="36" viewBox="0 0 38 36" fill="none" xmlns="http://www.w3.org/2000/svg">
<g clip-path="url(#clip0_6177_6554)">
<path d="M21.2871 16.6079V11.8246H37.6323V16.6079H21.2871Z" fill="#00B4E7"/>
<path d="M21.2871 0.598938H26.1147V16.6079H21.2871V0.598938Z" fill="#00B4E7"/>
<path d="M32.7966 0.598938H21.3198V5.38221H32.7966V16.6079H37.6324V5.38221V0.598938H32.7966Z" fill="#00B4E7"/>
<path fill-rule="evenodd" clip-rule="evenodd" d="M8.75666 12.5531C10.9213 12.5531 12.6776 10.813 12.6776 8.66817C12.6776 6.52338 10.9213 4.78327 8.75666 4.78327C6.592 4.78327 4.83577 6.52338 4.83577 8.66817C4.83577 10.813 6.592 12.5531 8.75666 12.5531ZM8.75666 17.3282C13.5924 17.3282 17.5133 13.4514 17.5133 8.66007C17.5133 3.8687 13.5924 0 8.75666 0C3.92089 0 0 3.8768 0 8.66817C0 13.4595 3.92089 17.3363 8.75666 17.3363V17.3282Z" fill="#FF0C26"/>
<path d="M17.4072 19.3921V24.1754H1.06201V19.3921H17.4072Z" fill="#00B4E7"/>
<path d="M17.4072 35.4011H12.5796V19.3921H17.4072V35.4011Z" fill="#00B4E7"/>
<path d="M5.88961 35.4011H17.3664V30.6178H5.88961V19.3921H1.06201V30.6178V35.4011H5.88961Z" fill="#00B4E7"/>
<path fill-rule="evenodd" clip-rule="evenodd" d="M29.2513 23.455C27.0866 23.455 25.3304 25.1951 25.3304 27.3399C25.3304 29.4847 27.0866 31.2248 29.2513 31.2248C31.416 31.2248 33.1722 29.4847 33.1722 27.3399C33.1722 25.1951 31.416 23.455 29.2513 23.455ZM29.2513 18.6718C24.4155 18.6718 20.4946 22.5486 20.4946 27.3399C20.4946 32.1313 24.4155 36.0081 29.2513 36.0081C34.0871 36.0081 38.008 32.1313 38.008 27.3399C38.008 22.5486 34.0871 18.6718 29.2513 18.6718Z" fill="#FFC600"/>
</g>
<defs>
<clipPath id="clip0_6177_6554">
<rect width="38" height="36" fill="white"/>
</clipPath>
</defs>
</svg>
